<?xml version="1.0" encoding="utf-8"?>
<!-- Generator: Adobe Illustrator 26.5.0, SVG Export Plug-In . SVG Version: 6.00 Build 0)  -->
<svg version="1.1" id="Capa_1" xmlns="http://www.w3.org/2000/svg" xmlns:xlink="http://www.w3.org/1999/xlink" x="0px" y="0px"
	 viewBox="0 0 276 270.8" style="enable-background:new 0 0 276 270.8;" xml:space="preserve">
<style type="text/css">
	.st0{display:none;}
	.st1{fill:#22B5D3;}
	.st2{fill:#080F12;}
	.st3{display:inline;fill:#22B5D3;}
</style>
<rect x="-117.1" y="-107.4" class="st0" width="510.2" height="510.2"/>
<g id="TRIANGULO1">
	<path class="st1" d="M5.7,236.8L114.4,13.3C123-4.3,148-4.5,156.8,13.1l111.3,222.3c7.8,15.7-3.5,34.1-21,34.2l-220,1.2
		C9.6,270.9-2,252.5,5.7,236.8z"/>
	<g>
		<path class="st2" d="M91.9,67.5h13.3c4.9,0,8.6,1.2,10.9,3.5c3,2.8,4.5,6.3,4.5,10.6v9.9c0,3.3-0.9,5.4-2.8,6.2
			c-0.7,0.4-1.8,0.9-3.5,1.6c0,0.2,0,0.3-0.1,0.5c0.6,0.8,0.9,1.5,0.9,1.8c0,1.1-1.8,2.2-5.3,3.5c-1.3,0.3-3,0.5-5.3,0.5h-3.6v22.8
			h-9.2v-24.7c0-1.2-0.8-2.3-2.5-3.1c-0.6-0.4-0.9-0.7-0.9-1c2.2-1.6,3.3-2.8,3.3-3.7c0.1-0.4,0.1-0.8,0.1-1.2V67.5z M101.1,76.9
			v17.6c0,0.8-0.1,1.4-0.3,1.7h5.8c2.6,0,4.3-1.3,5.2-4c0.1-0.7,0.1-1.2,0.1-1.6v-7.9c0-2.8-1-4.6-3.1-5.4c-0.7-0.2-1.4-0.3-2.3-0.3
			H101.1z"/>
		<path class="st2" d="M123.8,67.5H137c5.3,0,9,1.1,11.3,3.2c2.8,2.6,4.1,6.1,4.1,10.7v10c0,3.3-0.9,5.3-2.8,6.2l-3.5,1.6v0.3
			c0,0.1,0.2,0.6,0.7,1.7c0,0.2,0.3,0.7,0.8,1.5c0.2,0.3,2,6.9,5.2,19.9l1.5,5.5h-10l-5.5-22.8h-6.1v22.8h-9.2v-24.5
			c0-1.5-1-2.7-3-3.6l-0.3-0.3v-0.3l2.4-2.1c0.6-0.7,0.9-1.5,0.9-2.4V67.7C123.6,67.6,123.7,67.5,123.8,67.5z M132.8,76.9v18
			c0,0.4-0.1,0.8-0.2,1.4h5.9c2.3,0,3.9-1.3,4.9-3.8c0.1-0.4,0.1-0.8,0.1-1v-9.8c0-2.3-1.1-3.8-3.2-4.5c-0.6-0.2-1.3-0.2-2-0.2
			H132.8z"/>
		<path class="st2" d="M169.6,66.7h1.4c5.1,0,9.3,2.8,12.5,8.3c0.8,2,1.3,3.9,1.3,5.6v14.5c0,1.6-1.1,2.9-3.3,3.9l-0.1,0.2v0.2
			c0,0.1,0.9,0.7,2.5,1.8c0.6,0.7,0.9,1.4,0.9,2.3v11c0,5.6-2.8,9.9-8.5,13c-2.1,0.8-4.1,1.3-6.1,1.3c-5.7,0-10.1-2.9-13.2-8.6
			c-0.8-1.9-1.2-3.8-1.2-5.6v-10.9c0-1.6-1-2.9-3-3.7c-0.3-0.4-0.5-0.6-0.5-0.8c2.2-1.6,3.3-2.8,3.3-3.7c0.1-0.4,0.1-0.8,0.1-1.2
			V80.7c0-5.1,2.6-9.2,7.8-12.4C165.8,67.2,167.8,66.7,169.6,66.7z M164.8,81.1v13.6c0,1.6-1,2.9-3.1,3.8l-0.3,0.5v0.2
			c0.1,0.2,0.9,0.8,2.4,1.7c0.7,0.7,1,1.5,1,2.5v10.8c0,2.5,1.3,4.1,3.9,5.1c0.3,0.1,0.6,0.1,0.9,0.1h1.2c1,0,2-0.5,3.1-1.6
			c0.9-1,1.4-2.2,1.4-3.6v-10.5c0-1.8-1-3.2-3-4c0-0.2-0.2-0.3-0.6-0.5c0-0.5,0.7-1,2-1.6c1.1-0.7,1.6-1.8,1.6-3.2V81.1
			c0-2.6-1.4-4.4-4.1-5.2l-1.2-0.1c-2.5,0-4.2,1.4-5.1,4.1C164.8,80.4,164.8,80.8,164.8,81.1z"/>
		<path class="st2" d="M69.1,135.4h14.5c5.6,0,9.9,2.7,12.9,8.2c0.9,1.9,1.4,3.8,1.4,5.8v13.8c0,1.5-1.1,2.8-3.3,3.9
			c0,0.2-0.1,0.2-0.2,0.2c0,0.3,0.7,0.9,2.1,1.6c1,0.8,1.5,1.6,1.5,2.5v10.8c0,5.3-2.8,9.5-8.4,12.8c-2.1,0.8-3.9,1.2-5.4,1.2h-15
			v-24.7c0-1.2-0.8-2.3-2.5-3.1c-0.6-0.4-0.9-0.7-0.9-1c2.2-1.6,3.3-2.8,3.3-3.7c0.1-0.4,0.1-0.8,0.1-1.2V135.4z M78.3,144.8v17.6
			c0,1.8-1,3.2-3.1,4l-0.3,0.5v0.5c2.3,1,3.5,2.4,3.5,4.3v15.4h5.5c2.3,0,4-1.3,4.9-3.9c0.1-0.3,0.1-0.6,0.1-0.9v-10.8
			c0-1.6-1.2-2.9-3.5-4v-0.5l2.8-2.1c0.5-0.6,0.7-1.3,0.7-2.1v-13.1c0-2.3-1.4-3.9-4.1-4.8H78.3z"/>
		<path class="st2" d="M100.7,135.4h9.2V163c0,1.3-1.1,2.5-3.2,3.6l-0.2,0.3v0.5c2.3,1.1,3.5,2.4,3.5,4v24.7h-9.2v-24.6
			c0-1.7-1.2-3.1-3.5-4.1v-0.7c2.3-1.1,3.5-2.4,3.5-4.1V135.4z"/>
		<path class="st2" d="M127.3,134.6c5.8,0,10.3,2.9,13.3,8.6c0.8,1.9,1.2,3.8,1.2,5.6v7.2h-9.6v-7.5c0-2.2-1.4-3.9-4.3-4.8h-1.4
			c-2,0-3.5,1.2-4.5,3.5c-0.2,0.5-0.3,1.6-0.3,3.1v12.7c0,1.2-1.1,2.4-3.3,3.6l-0.1,0.2v0.2c0,0.1,0.8,0.7,2.4,1.7
			c0.7,0.7,1,1.4,1,2.1v10.2c0,3.1,1.1,5.1,3.2,6c0.5,0.2,1.1,0.3,1.8,0.3h0.6c2.1,0,3.7-1.3,4.7-3.8c0.1-0.4,0.1-0.8,0.1-1V171
			l-0.1-0.6h-4.9c-0.1,0-0.3-0.5-0.8-1.4c-1.8-1.2-2.6-1.9-2.6-2v-0.2l2.8-2.1c0.5-0.8,0.7-1.6,0.7-2.3v-1.4h14.6v2
			c0,1.6-1.1,2.9-3.3,3.9l-0.1,0.2v0.2c0,0.1,0.9,0.7,2.5,1.8c0.6,0.7,0.9,1.4,0.9,2.3V183c0,5.3-2.8,9.6-8.5,12.8
			c-2.1,0.8-4,1.2-5.9,1.2h-0.2c-5.6,0-9.9-2.7-13-8.2c-0.9-1.9-1.4-3.8-1.4-5.8v-11.3c0-1.6-1-2.9-3-3.7c-0.3-0.4-0.5-0.6-0.5-0.8
			c2.2-1.6,3.3-2.8,3.3-3.7c0.1-0.4,0.1-0.8,0.1-1.2v-13.5c0-5.5,2.8-9.8,8.3-12.9C123.2,135.1,125.3,134.6,127.3,134.6z"/>
		<path class="st2" d="M159.2,134.6c5.8,0,10.3,2.9,13.3,8.6c0.8,1.9,1.2,3.8,1.2,5.6v7.2h-9.6v-7.5c0-2.2-1.4-3.9-4.3-4.8h-1.4
			c-2,0-3.5,1.2-4.5,3.5c-0.2,0.5-0.3,1.6-0.3,3.1v12.7c0,1.2-1.1,2.4-3.3,3.6l-0.1,0.2v0.2c0,0.1,0.8,0.7,2.4,1.7
			c0.7,0.7,1,1.4,1,2.1v10.2c0,3.1,1.1,5.1,3.2,6c0.5,0.2,1.1,0.3,1.8,0.3h0.6c2.1,0,3.7-1.3,4.7-3.8c0.1-0.4,0.1-0.8,0.1-1V171
			l-0.1-0.6h-4.9c-0.1,0-0.3-0.5-0.8-1.4c-1.8-1.2-2.6-1.9-2.6-2v-0.2l2.8-2.1c0.5-0.8,0.7-1.6,0.7-2.3v-1.4h14.6v2
			c0,1.6-1.1,2.9-3.3,3.9l-0.1,0.2v0.2c0,0.1,0.9,0.7,2.5,1.8c0.6,0.7,0.9,1.4,0.9,2.3V183c0,5.3-2.8,9.6-8.5,12.8
			c-2.1,0.8-4,1.2-5.9,1.2h-0.2c-5.6,0-9.9-2.7-13-8.2c-0.9-1.9-1.4-3.8-1.4-5.8v-11.3c0-1.6-1-2.9-3-3.7c-0.3-0.4-0.5-0.6-0.5-0.8
			c2.2-1.6,3.3-2.8,3.3-3.7c0.1-0.4,0.1-0.8,0.1-1.2v-13.5c0-5.5,2.8-9.8,8.3-12.9C155.1,135.1,157.1,134.6,159.2,134.6z"/>
		<path class="st2" d="M176.5,135.4h10c0.2,0.1,1,2.7,2.6,7.9l4.1,13.6h0.2l6.6-21.5h10.2c-6.1,17.6-9.5,27.2-10.1,28.7
			c-0.6,0.8-1.9,1.6-4.1,2.6c-0.2,0.2-0.3,0.4-0.3,0.7c1.5,1.1,2.3,2,2.3,2.8h-0.1l0.1,0.2c0,0.1,0,0.1-0.1,0.1l0.1,0.8v24.9h-9.2
			v-24.7c0-1.3-1.5-2.6-4.4-3.9c-0.3-0.3-0.5-0.5-0.5-0.6c0-0.2,0.6-0.7,1.8-1.7c0.2-0.6,0.3-0.9,0.3-1v-0.3c0-0.6-1.2-4.3-3.6-10.9
			L176.5,135.4z"/>
		<path class="st2" d="M45.5,201.1h9.7c2.8,17.2,4.2,26.6,4.4,28.1v0.3c0,0.7-0.9,1.7-2.8,3v0.3c0,0.1,1,0.7,3,2
			c0.7,0.6,1.1,1.7,1.4,3.3l1.5,10h0.1l1.8-11.6c0-1.3-0.9-2.4-2.6-3.3c0-0.2-0.1-0.2-0.2-0.2c0-0.4,1-1.1,2.9-2.2
			c1-0.9,1.5-2.1,1.5-3.6c0.2-0.5,1.6-9.2,4.3-26.1H80c-3.2,18-5,27.6-5.3,28.8c-1,1.2-2.2,2.1-3.6,2.6c0,0.1-0.2,0.3-0.5,0.5
			c0,0.2,0.8,0.9,2.4,2.3l0.5,1.5L69,261.8H56.3c-2.8-16.3-4.4-24.9-4.7-25.8c-0.6-1.1-1.7-1.9-3.3-2.5c0,0-0.2-0.2-0.6-0.6
			c0-0.2,0.7-0.9,2.1-2c0.5-0.9,0.7-1.5,0.7-1.7l-0.1-0.2c0-0.1,0-0.1,0.1-0.1L45.5,201.1z"/>
		<path class="st2" d="M81.5,201.1h9.2v27.6c0,1.3-1.1,2.5-3.2,3.6l-0.2,0.3v0.5c2.3,1.1,3.5,2.4,3.5,4v24.7h-9.2v-24.6
			c0-1.7-1.2-3.1-3.5-4.1v-0.7c2.3-1.1,3.5-2.4,3.5-4.1V201.1z"/>
		<path class="st2" d="M93.6,201.1h10.2c0.3,0.3,0.8,2,1.6,5.1c4.5,14.9,6.8,22.6,6.8,22.9v0.6c0,0.9-0.7,1.7-2.2,2.6l-0.1,0.2v0.3
			l3.3,2.1c0.9,0.6,1.8,2.7,2.6,6.3v0.1h0.1v-4.1c0-1.6-1-2.9-3.1-3.9l-0.3-0.5v-0.2c1.6-1.1,2.6-1.8,3-2.3c0.3-0.5,0.5-1,0.5-1.4
			v-27.8h9.3v26.7c0,2.2-0.7,3.6-2.1,4.1l-1.5,1c0.2,0.5,1,1.1,2.4,2c0.8,0.9,1.2,1.7,1.2,2.2v24.7h-10c-0.4-1.4-3.1-10-8.3-25.7
			c-1-1.3-2.5-2.3-4.5-3.2l-0.1-0.6c1.5-1,2.3-2,2.3-2.9c0-0.4-0.6-2.4-1.7-6.1h-0.1v4.6c0,1.9-1,3.2-3.1,4.1l-0.3,0.5v0.2
			c0.2,0.3,1,0.9,2.5,1.8c0.6,0.8,0.9,1.7,0.9,2.8v24.4h-9.3V237c0-1.2-1-2.3-2.9-3.1l-0.5-0.5c0-0.4,0.7-1,2-1.8
			c0.9-0.9,1.4-1.7,1.4-2.5V201.1z"/>
		<path class="st2" d="M128.2,201.1h9.2v27.6c0,1.3-1.1,2.5-3.2,3.6l-0.2,0.3v0.5c2.3,1.1,3.5,2.4,3.5,4v24.7h-9.2v-24.6
			c0-1.7-1.2-3.1-3.5-4.1v-0.7c2.3-1.1,3.5-2.4,3.5-4.1V201.1z"/>
		<path class="st2" d="M140.5,201.1h9v27.7c0,1.2-1.1,2.4-3.3,3.6l-0.1,0.2v0.2c0,0.1,0.8,0.7,2.4,1.7c0.7,0.7,1,1.4,1,2.1v16.1
			h15.9v9.1h-25.1v-25c0-1.3-1-2.4-3.1-3.5c-0.2-0.2-0.2-0.3-0.2-0.5c0-0.2,0.8-0.9,2.4-2.1c0.6-0.8,0.9-1.6,0.9-2.4v-27.2
			C140.3,201.2,140.4,201.1,140.5,201.1z"/>
		<path class="st2" d="M182,200.3h1.4c5.1,0,9.3,2.8,12.5,8.3c0.8,2,1.3,3.9,1.3,5.6v14.5c0,1.6-1.1,2.9-3.3,3.9l-0.1,0.2v0.2
			c0,0.1,0.9,0.7,2.5,1.8c0.6,0.7,0.9,1.4,0.9,2.3v11c0,5.6-2.8,9.9-8.5,13c-2.1,0.8-4.1,1.3-6.1,1.3c-5.7,0-10.1-2.9-13.2-8.6
			c-0.8-1.9-1.2-3.8-1.2-5.6v-10.9c0-1.6-1-2.9-3-3.7c-0.3-0.4-0.5-0.6-0.5-0.8c2.2-1.6,3.3-2.8,3.3-3.7c0.1-0.4,0.1-0.8,0.1-1.2
			v-13.8c0-5.1,2.6-9.2,7.8-12.4C178.2,200.8,180.2,200.3,182,200.3z M177.2,214.7v13.6c0,1.6-1,2.9-3.1,3.8l-0.3,0.5v0.2
			c0.1,0.2,0.9,0.8,2.4,1.7c0.7,0.7,1,1.5,1,2.5v10.8c0,2.5,1.3,4.1,3.9,5.1c0.3,0.1,0.6,0.1,0.9,0.1h1.2c1,0,2-0.5,3.1-1.6
			c0.9-1,1.4-2.2,1.4-3.6v-10.5c0-1.8-1-3.2-3-4c0-0.2-0.2-0.3-0.6-0.5c0-0.5,0.7-1,2-1.6c1.1-0.7,1.6-1.8,1.6-3.2v-13.3
			c0-2.6-1.4-4.4-4.1-5.2l-1.2-0.1c-2.5,0-4.2,1.4-5.1,4.1C177.2,214,177.2,214.4,177.2,214.7z"/>
		<path class="st2" d="M214.4,200.3h1.8c4.5,0,8.1,1.8,10.9,5.5c1.3,1.5,2.3,4.2,2.9,8.1v2h-8.9c-0.6-4.8-2.3-7.2-5.2-7.2h-0.8
			c-2.6,0-4.1,2-4.6,6v0.7c0,4.3,3.1,8.9,9.2,13.6c0.8,0.9,1.3,1.5,1.3,2v0.2c-0.3,0.8-0.5,1.3-0.5,1.4v0.1c0.1,0.3,1.4,1.1,4,2.3
			c2,1.1,3.5,3.2,4.6,6.4c0.8,1.9,1.3,3.9,1.3,5.9c0,5.4-2,9.7-5.9,12.9c-2.4,1.7-5.4,2.5-8.9,2.5c-6.9,0-11.6-3.4-14.3-10.2
			c-0.9-2.8-1.3-5.4-1.4-7.7h8.7c0.6,3.7,1.4,6.1,2.4,7.1c1.1,1.5,2.4,2.3,4,2.3c2.5,0,4.4-1.4,5.5-4.3c0.2-0.8,0.3-1.7,0.3-2.8
			c0-3.8-2.8-7.7-8.4-11.7c-0.9-0.5-2.8-1.4-5.8-2.5c0-0.1-0.1-0.2-0.3-0.3c0.5-0.9,0.7-1.4,0.7-1.6v-0.5c-0.1-0.6-1.2-2.3-3.5-4.9
			c-1.8-3.2-2.8-6.3-2.8-9.3v-1.5c0-5.9,2.6-10.3,7.8-13.1C210.9,200.7,212.7,200.3,214.4,200.3z"/>
	</g>
	<g class="st0">
		<path class="st3" d="M11.6,286.2c0.7-0.3,1.3-0.8,1.7-1.5c0.4-0.7,0.6-1.4,0.6-2.3c0-1.4-0.5-2.5-1.6-3.3
			c-1.1-0.8-2.6-1.2-4.6-1.2H0v17.3h8.3c2.2,0,3.8-0.4,4.9-1.2c1.1-0.8,1.7-2,1.7-3.5c0-1.1-0.3-2-0.9-2.8
			C13.4,287,12.6,286.5,11.6,286.2z M2.5,279.9h5.1c1.3,0,2.2,0.2,2.9,0.7c0.7,0.5,1,1.2,1,2.1c0,0.9-0.3,1.6-1,2.1
			c-0.7,0.5-1.7,0.7-2.9,0.7H2.5V279.9z M11.3,292.5c-0.7,0.5-1.8,0.7-3.2,0.7H2.5v-5.8h5.7c2.8,0,4.2,1,4.2,2.9
			C12.4,291.3,12,292,11.3,292.5z"/>
		<polygon class="st3" points="24.2,287 18.7,277.9 16,277.9 22.9,289.1 22.9,295.2 25.3,295.2 25.3,289.2 32.2,277.9 29.8,277.9 		
			"/>
		<path class="st3" d="M46.5,280.7c1-0.6,2.2-0.9,3.5-0.9c2,0,3.6,0.7,5,2l1.5-1.5c-0.8-0.9-1.8-1.5-2.9-2c-1.1-0.5-2.4-0.7-3.8-0.7
			c-1.8,0-3.4,0.4-4.8,1.1c-1.4,0.8-2.5,1.8-3.3,3.2c-0.8,1.4-1.2,2.9-1.2,4.5s0.4,3.2,1.2,4.5c0.8,1.3,1.9,2.4,3.3,3.2
			c1.4,0.8,3,1.1,4.7,1.1c1.2,0,2.4-0.2,3.6-0.6c1.1-0.4,2.1-0.9,3-1.6v-6.7h-2.4v5.6c-1.2,0.7-2.5,1.1-4.1,1.1
			c-1.3,0-2.5-0.3-3.5-0.9c-1-0.6-1.9-1.4-2.5-2.4s-0.9-2.1-0.9-3.4c0-1.3,0.3-2.4,0.9-3.4C44.6,282.1,45.5,281.3,46.5,280.7z"/>
		<polygon class="st3" points="64,287.4 72.7,287.4 72.7,285.3 64,285.3 64,280 73.8,280 73.8,277.9 61.6,277.9 61.6,295.2 
			74.1,295.2 74.1,293 64,293 		"/>
		<path class="st3" d="M91.5,287.3c0.7-0.9,1-2.1,1-3.4c0-1.9-0.6-3.4-1.9-4.4c-1.3-1.1-3-1.6-5.3-1.6h-6.7v17.3H81v-5.3h4.3
			c0.3,0,0.6,0,1.1,0l3.7,5.3h2.7l-4.1-5.8C89.9,288.9,90.8,288.3,91.5,287.3z M85.2,287.8H81V280h4.2c1.6,0,2.8,0.3,3.6,1
			c0.8,0.7,1.2,1.6,1.2,2.9s-0.4,2.2-1.2,2.9C87.9,287.5,86.7,287.8,85.2,287.8z"/>
		<path class="st3" d="M105.7,286.4c-0.8-0.3-1.8-0.6-3.1-0.9c-1-0.2-1.8-0.4-2.4-0.7s-1.1-0.5-1.5-0.9c-0.4-0.4-0.6-0.9-0.6-1.4
			c0-0.8,0.4-1.5,1.1-2s1.8-0.8,3.2-0.8c0.8,0,1.6,0.1,2.4,0.4c0.8,0.2,1.6,0.6,2.3,1.1l0.8-2c-0.7-0.5-1.6-0.9-2.5-1.1
			c-1-0.3-2-0.4-3-0.4c-1.5,0-2.7,0.2-3.7,0.7c-1,0.4-1.7,1-2.2,1.8c-0.5,0.7-0.7,1.6-0.7,2.5c0,1.1,0.3,2,0.9,2.6
			c0.6,0.7,1.3,1.1,2.1,1.4c0.8,0.3,1.8,0.6,3.2,0.9c1,0.2,1.8,0.5,2.4,0.7c0.6,0.2,1,0.5,1.4,0.9c0.4,0.4,0.6,0.9,0.6,1.4
			c0,0.8-0.4,1.5-1.1,1.9c-0.7,0.5-1.8,0.7-3.2,0.7c-1.1,0-2.1-0.2-3.2-0.6c-1-0.4-1.9-0.9-2.5-1.4l-0.9,1.9
			c0.7,0.6,1.6,1.2,2.9,1.6c1.2,0.4,2.5,0.6,3.8,0.6c1.5,0,2.7-0.2,3.7-0.7c1-0.4,1.8-1,2.2-1.8c0.5-0.7,0.7-1.6,0.7-2.5
			c0-1.1-0.3-2-0.9-2.6C107.2,287.2,106.5,286.7,105.7,286.4z"/>
		<polygon class="st3" points="109.8,280 115.8,280 115.8,295.2 118.2,295.2 118.2,280 124.1,280 124.1,277.9 109.8,277.9 		"/>
		<polygon class="st3" points="129.7,287.4 138.3,287.4 138.3,285.3 129.7,285.3 129.7,280 139.4,280 139.4,277.9 127.2,277.9 
			127.2,295.2 139.8,295.2 139.8,293 129.7,293 		"/>
		<path class="st3" d="M157.1,287.3c0.7-0.9,1-2.1,1-3.4c0-1.9-0.6-3.4-1.9-4.4c-1.3-1.1-3-1.6-5.3-1.6h-6.7v17.3h2.5v-5.3h4.3
			c0.3,0,0.6,0,1.1,0l3.7,5.3h2.7l-4.1-5.8C155.5,288.9,156.5,288.3,157.1,287.3z M150.8,287.8h-4.2V280h4.2c1.6,0,2.8,0.3,3.6,1
			c0.8,0.7,1.2,1.6,1.2,2.9s-0.4,2.2-1.2,2.9C153.6,287.5,152.4,287.8,150.8,287.8z"/>
		<path class="st3" d="M173.9,280.7c1-0.6,2.2-0.9,3.5-0.9c2,0,3.6,0.7,5,2l1.5-1.5c-0.8-0.9-1.8-1.5-2.9-2
			c-1.1-0.5-2.4-0.7-3.8-0.7c-1.8,0-3.4,0.4-4.8,1.1c-1.4,0.8-2.5,1.8-3.3,3.2c-0.8,1.4-1.2,2.9-1.2,4.5s0.4,3.2,1.2,4.5
			c0.8,1.3,1.9,2.4,3.3,3.2c1.4,0.8,3,1.1,4.7,1.1c1.2,0,2.4-0.2,3.6-0.6c1.1-0.4,2.1-0.9,3-1.6v-6.7h-2.4v5.6
			c-1.2,0.7-2.5,1.1-4.1,1.1c-1.3,0-2.5-0.3-3.5-0.9c-1-0.6-1.9-1.4-2.5-2.4c-0.6-1-0.9-2.1-0.9-3.4c0-1.3,0.3-2.4,0.9-3.4
			C172,282.1,172.9,281.3,173.9,280.7z"/>
		<path class="st3" d="M194.2,277.9l-7.8,17.3h2.5l1.9-4.3h9.2l1.9,4.3h2.6l-7.9-17.3H194.2z M191.6,288.9l3.7-8.5l3.7,8.5H191.6z"
			/>
		<path class="st3" d="M220.4,287.3c0.7-0.9,1-2.1,1-3.4c0-1.9-0.6-3.4-1.9-4.4c-1.3-1.1-3-1.6-5.3-1.6h-6.7v17.3h2.5v-5.3h4.3
			c0.3,0,0.6,0,1.1,0l3.7,5.3h2.7l-4.1-5.8C218.8,288.9,219.7,288.3,220.4,287.3z M214.1,287.8h-4.2V280h4.2c1.6,0,2.8,0.3,3.6,1
			c0.8,0.7,1.2,1.6,1.2,2.9s-0.4,2.2-1.2,2.9C216.9,287.5,215.7,287.8,214.1,287.8z"/>
		<path class="st3" d="M231,277.9l-7.8,17.3h2.5l1.9-4.3h9.2l1.9,4.3h2.6l-7.9-17.3H231z M228.5,288.9l3.7-8.5l3.7,8.5H228.5z"/>
		<path class="st3" d="M248.4,280.7c1-0.6,2.2-0.9,3.5-0.9c2,0,3.6,0.7,5,2l1.5-1.5c-0.8-0.9-1.8-1.5-2.9-2
			c-1.1-0.5-2.4-0.7-3.8-0.7c-1.8,0-3.4,0.4-4.8,1.1c-1.4,0.8-2.5,1.8-3.3,3.2c-0.8,1.4-1.2,2.9-1.2,4.5s0.4,3.2,1.2,4.5
			c0.8,1.3,1.9,2.4,3.3,3.2c1.4,0.8,3,1.1,4.7,1.1c1.2,0,2.4-0.2,3.6-0.6c1.1-0.4,2.1-0.9,3-1.6v-6.7H256v5.6
			c-1.2,0.7-2.5,1.1-4.1,1.1c-1.3,0-2.5-0.3-3.5-0.9c-1-0.6-1.9-1.4-2.5-2.4s-0.9-2.1-0.9-3.4c0-1.3,0.3-2.4,0.9-3.4
			C246.5,282.1,247.4,281.3,248.4,280.7z"/>
		<polygon class="st3" points="265.9,293 265.9,287.4 274.6,287.4 274.6,285.3 265.9,285.3 265.9,280 275.7,280 275.7,277.9 
			263.4,277.9 263.4,295.2 276,295.2 276,293 		"/>
	</g>
</g>
</svg>
