<svg width="175" height="40" viewBox="0 0 175 40" fill="none" xmlns="http://www.w3.org/2000/svg">
<path d="M54.2768 40V0.782473H56.3536V6.95143C56.5988 6.67789 56.8253 6.38733 57.0315 6.08182C58.766 2.39576 62.4244 0.0694265 66.4185 0.115375C71.1535 -0.0292767 75.0013 1.7661 77.2625 6.08182C78.7014 8.76293 79.4932 11.7577 79.5719 14.8162C79.6505 17.8746 79.0136 20.908 77.7144 23.6629C75.6078 28.4994 70.4042 30.904 64.8335 30.0208C63.0998 29.8698 61.4307 29.2765 59.9784 28.2949C58.5262 27.3133 57.3371 25.9748 56.5197 24.4015V39.9983L54.2768 40ZM56.3536 14.6554L56.8188 19.2604C57.6395 24.5019 60.665 27.5991 65.415 28.1811C67.6456 28.5568 69.9344 28.1284 71.8912 26.9691C73.848 25.8097 75.3517 23.9911 76.1461 21.8233C77.9936 17.3136 77.8573 12.2082 75.7805 7.80402C74.9328 5.86072 73.4906 4.25288 71.6718 3.22345C69.853 2.19402 67.7565 1.79895 65.6991 2.09795C63.7679 2.24186 61.9284 2.99824 60.4362 4.26204C58.9439 5.52584 57.8729 7.23431 57.372 9.15013C56.9298 10.9631 56.5897 12.8007 56.3536 14.6537V14.6554ZM121.976 19.9854C121.661 22.7466 120.378 25.2967 118.365 27.1615C116.352 29.0262 113.746 30.0785 111.033 30.1229C102.323 30.5721 98.2363 24.6482 97.5866 17.8122C97.1349 14.0999 97.7232 10.3325 99.283 6.94973C100.369 4.62916 102.147 2.72284 104.361 1.50693C106.575 0.291025 109.11 -0.171328 111.597 0.186849C113.962 0.392754 116.204 1.35528 118.006 2.9382C119.807 4.52112 121.077 6.64427 121.636 9.00718C122.078 11.1597 122.404 13.3356 122.611 15.525H99.7382C99.3145 21.7229 102.566 26.7057 107.175 27.9072C112.915 29.3537 117.821 26.8061 119.602 21.2158C119.998 19.7812 120.719 19.5786 121.991 19.9854H121.976ZM99.7216 13.5407H120.18C120.052 6.93781 116.038 2.13879 110.594 2.08433C104.447 1.98223 99.9891 6.58895 99.7216 13.5407ZM126.205 20.13H128.21C128.284 21.6433 128.763 23.1064 129.596 24.3584C130.429 25.6105 131.584 26.6029 132.932 27.2264C134.624 28.0067 136.467 28.386 138.323 28.3359C140.178 28.2858 141.999 27.8077 143.649 26.9371C144.549 26.5222 145.303 25.8345 145.808 24.9668C146.314 24.0991 146.547 23.0933 146.477 22.0854C146.529 21.1132 146.27 20.1504 145.739 19.3427C145.208 18.535 144.435 17.9266 143.536 17.6097C141.33 16.769 138.984 16.3061 136.736 15.5675C134.397 14.8854 132.11 14.0288 129.893 13.0047C126.271 11.194 126.047 4.14179 130.147 1.90905C132.247 0.69553 134.609 0.0398305 137.02 0.0017815C139.43 -0.0362675 141.812 0.544544 143.947 1.69122C146.595 3.18879 148.059 6.21285 147.624 9.28116H145.904C145.904 9.19607 145.748 9.12119 145.748 9.0344C145.535 3.41853 140.926 1.66229 135.979 2.15581C134.483 2.32599 133.066 2.78887 131.737 3.47299C130.938 3.84673 130.272 4.46561 129.832 5.24397C129.391 6.02234 129.198 6.92171 129.278 7.81763C129.28 8.71422 129.553 9.58828 130.059 10.3196C130.565 11.051 131.28 11.6037 132.106 11.9019C134.266 12.7137 136.559 13.2344 138.793 13.8709L144.193 15.3174C145.42 15.73 146.496 16.5145 147.279 17.5671C148.061 18.6197 148.513 19.8908 148.576 21.2123C149.008 24.182 147.529 27.1005 144.914 28.4534C140.192 31.1899 132.415 30.4666 128.951 27.0069C127.178 25.1809 126.19 22.7014 126.21 20.1283L126.205 20.13ZM174.02 9.28286H172.139C172.139 9.02249 172.04 8.77233 172.011 8.57322C171.981 7.12921 171.468 5.73968 170.556 4.63758C169.645 3.53549 168.391 2.78784 167.006 2.51999C164.392 1.7521 161.604 1.88969 159.074 2.9114C158.074 3.20461 157.193 3.82157 156.564 4.67004C155.934 5.51851 155.59 6.55289 155.582 7.61853C155.546 8.66488 155.864 9.69179 156.482 10.5256C157.1 11.3594 157.981 11.949 158.974 12.1946L167.571 14.4546C168.5 14.6829 169.416 14.9682 170.312 15.3089C173.053 16.3299 174.914 18.9371 174.997 21.9169C175.038 23.3755 174.648 24.8126 173.877 26.0397C173.106 27.2667 171.99 28.2262 170.677 28.7921C168.682 29.7204 166.52 30.2116 164.328 30.2341C162.137 30.2567 159.966 29.8102 157.953 28.9231C156.297 28.1919 154.9 26.9588 153.95 25.3898C152.999 23.8207 152.541 21.991 152.636 20.147H154.474C155.165 23.5591 157.452 26.4011 160.591 27.7455C163.729 29.0899 167.313 28.7597 170.167 26.8674C171.024 26.4112 171.735 25.7132 172.216 24.8561C172.697 23.9989 172.928 23.0185 172.882 22.0309C172.925 21.0581 172.656 20.0976 172.118 19.2952C171.579 18.4927 170.8 17.892 169.898 17.5842C167.692 16.7435 165.346 16.2959 163.098 15.542C160.746 14.8704 158.445 14.0235 156.213 13.0081C152.678 11.2263 152.395 4.23198 156.426 2.00095C158.551 0.736496 160.96 0.0571996 163.418 0.0291671C165.876 0.00113454 168.299 0.625321 170.451 1.84098C171.683 2.5936 172.674 3.69667 173.304 5.01585C173.934 6.33503 174.176 7.8134 174 9.27095L174.02 9.28286ZM50.8593 29.4149C50.119 29.7017 49.3018 29.7009 48.562 29.4128C47.8222 29.1247 47.211 28.5691 46.8437 27.851L39.5334 17.4957L38.4734 16.0491L29.9902 27.8663C29.6445 28.5535 29.0663 29.0884 28.3637 29.3708C27.6611 29.6533 26.8821 29.6642 26.1723 29.4013L37.1011 14.3831L26.9332 0.813104C28.4418 0.25492 30.1232 0.860755 30.9622 2.25962L38.5382 12.7426L46.1591 2.30046C46.5075 1.625 47.086 1.10423 47.7848 0.837212C48.4835 0.57019 49.2537 0.575541 49.9488 0.852247L46.003 6.21456L40.6582 13.3399C40.5099 13.4756 40.3912 13.6419 40.3099 13.8278C40.2286 14.0137 40.1866 14.2151 40.1866 14.4188C40.1866 14.6226 40.2286 14.824 40.3099 15.0099C40.3912 15.1958 40.5099 15.3621 40.6582 15.4978L50.8377 29.4149H50.8593ZM97.2627 0.668455V2.71059C95.8326 2.61451 94.3988 2.82664 93.0538 3.33326C91.7088 3.83989 90.4824 4.62975 89.4538 5.65189C88.4252 6.67403 87.6173 7.90571 87.0822 9.26746C86.5471 10.6292 86.2967 12.0907 86.3472 13.5577C86.3472 18.3273 86.3472 23.0968 86.3472 27.8663V29.4881H84.3252V0.796086H86.3189V6.67574C88.7645 2.38725 92.5393 0.796088 97.276 0.680367L97.2627 0.668455ZM0.00332339 14.1959L0.893843 9.69129C3.33945 0.784175 13.308 -2.9223 20.1663 2.59487C24.1819 5.82485 25.1838 10.4009 24.9877 15.5573H2.3642C1.99868 24.7674 8.48652 30.3288 16.7853 27.4902C19.52 26.4691 21.5785 24.1411 22.2563 21.2481C22.695 19.8016 23.4193 19.5531 24.7451 19.9717C24.524 21.735 23.9155 23.424 22.9653 24.9116C22.0151 26.3993 20.7479 27.6469 19.2591 28.5606C16.7995 29.9385 13.9775 30.4844 11.1967 30.1204C8.41591 29.7563 5.81868 28.501 3.7764 26.5338C1.75612 24.2075 0.536638 21.2668 0.299056 18.1611C0.299056 17.6505 0.132914 17.174 0.0166146 16.7145C0.00553844 15.8557 0 15.0162 0 14.1959H0.00332339ZM2.39244 13.5731H22.8511C22.7232 6.89697 18.6095 2.16092 13.1235 2.11667C7.01616 2.03158 2.64664 6.66383 2.37749 13.5441L2.39244 13.5731Z" fill="black"/>
</svg>
