<svg width="76" height="110" viewBox="0 0 76 110" fill="none" xmlns="http://www.w3.org/2000/svg">
<path d="M49.9046 39.7163L39.3698 49.9566L29.5947 29.3557L34.6533 17.5072C35.9689 15.1017 38.0213 15.1292 39.304 17.5072L49.9046 39.7163Z" fill="#FFA000"/>
<path d="M29.5948 29.3557L39.3699 49.9566L0 88.2203L29.5948 29.3557Z" fill="#F57F17"/>
<path d="M61.4262 24.0637C63.3076 22.1737 65.2547 22.8198 65.7513 25.4967L76 87.7117L42.0307 109.017C40.8467 109.704 37.6892 110 37.6892 110C37.6892 110 34.8146 109.642 33.7193 108.969L0 88.2203L61.4262 24.0637Z" fill="#FFCA28"/>
<path d="M29.595 29.3558L0.00341797 88.2204L13.1826 2.19148C13.6694 -0.488868 15.1297 -0.746595 16.4322 1.61761L29.595 29.3558Z" fill="#FFA000"/>
</svg>
