<svg width="110" height="110" viewBox="0 0 110 110" fill="none" xmlns="http://www.w3.org/2000/svg">
<path d="M55 0C53.0212 0 51.0884 0.721187 49.6005 2.20959L38.556 13.3803C37.9577 13.7025 37.4515 14.1629 37.0834 14.7306L2.2319 49.593C-0.743968 52.5545 -0.743968 57.4187 2.2319 60.3955L49.6005 107.779C52.5764 110.74 57.4237 110.74 60.3995 107.779L107.768 60.3955C110.744 57.434 110.744 52.5698 107.768 49.593L60.3995 2.20959C58.9116 0.721187 56.9788 0 55 0ZM55 7.97908L102 54.9942L55 102.009L7.99958 54.9942L40.5195 22.4642L47.3916 29.3384C47.2075 29.9983 47.1461 30.7041 47.1461 31.4253C47.1461 34.3254 48.7261 36.8112 51.0731 38.1768V71.8117C48.7261 73.1773 47.1461 75.6631 47.1461 78.5632C47.1461 82.9057 50.6589 86.4195 55 86.4195C59.3411 86.4195 62.8539 82.9057 62.8539 78.5632C62.8539 75.6631 61.2739 73.1773 58.9269 71.8117V41.0002L70.9531 53.0302C70.7844 53.6593 70.7077 54.3191 70.7077 54.9942C70.7077 59.3367 74.2205 62.8506 78.5616 62.8506C82.9027 62.8506 86.4154 59.3367 86.4154 54.9942C86.4154 50.6518 82.9027 47.1379 78.5616 47.1379C77.8866 47.1379 77.227 47.2146 76.5981 47.3834L62.6084 33.3894C62.7772 32.7602 62.8539 32.1004 62.8539 31.4253C62.8539 27.0828 59.3411 23.569 55 23.569C54.279 23.569 53.5734 23.6303 52.9138 23.8145L46.0417 16.9402L55 7.97908Z" fill="#F1502F"/>
</svg>
