<svg width="98" height="110" viewBox="0 0 98 110" fill="none" xmlns="http://www.w3.org/2000/svg">
<path d="M0 0L0.426087 5.0065L8.37971 95.5527L8.66377 98.6996L11.6464 99.5579L47.7217 109.714L48.858 110L50.1362 109.714L86.2116 99.7009L89.1942 98.8427L89.4783 95.6957L97.5739 5.0065L98 0.143043H93.029L4.97101 0H0ZM9.94203 9.15475L88.058 9.29779L80.6725 91.6905L49 100.559L17.1855 91.6905L9.94203 9.15475ZM20.8783 22.8869L23.8609 57.0741H62.7768L61.4986 71.8075L49 75.2406H48.858L36.3594 71.8075L35.6493 62.3667H24.287L25.8493 80.5332L48.858 86.9701H49L72.0087 80.5332L75.1333 45.7737H34.087L33.0928 34.1873H76.1275L77.1217 22.8869H20.8783Z" fill="#E34C26"/>
</svg>
