<svg width="190" height="83" viewBox="0 0 190 83" fill="none" xmlns="http://www.w3.org/2000/svg">
<path fill-rule="evenodd" clip-rule="evenodd" d="M174.998 49.4253C174.799 49.4652 174.599 49.9053 174.599 50.1452C174.559 51.7462 174.52 55.9883 174.52 58.8696C174.52 58.9498 174.639 59.1098 174.759 59.1098C175.357 59.1497 176.793 59.1896 178.03 59.1896C179.746 59.1896 180.743 58.9498 181.302 58.71C182.738 57.9893 183.417 56.4285 183.417 54.7073C183.417 50.826 180.704 49.345 176.674 49.345C176.394 49.3051 175.597 49.3051 174.998 49.4253ZM185.292 67.3139C185.292 63.3519 182.379 61.1507 177.113 61.1507C176.873 61.1507 175.198 61.1108 174.799 61.1906C174.679 61.2309 174.52 61.3111 174.52 61.4312C174.52 64.2722 174.479 68.7949 174.599 70.5555C174.679 71.3157 175.238 72.3964 175.916 72.7165C176.634 73.1167 178.27 73.1965 179.387 73.1965C182.539 73.1965 185.292 71.4359 185.292 67.3139ZM166.859 47.2244C167.258 47.2244 168.455 47.3441 171.527 47.3441C174.44 47.3441 176.754 47.2643 179.586 47.2643C183.057 47.2643 187.845 48.5046 187.845 53.7073C187.845 56.2685 186.05 58.3097 183.696 59.3102C183.577 59.3501 183.577 59.4299 183.696 59.4698C187.047 60.3107 190 62.3914 190 66.313C190 70.1553 187.606 72.5963 184.135 74.1172C182.02 75.0374 179.387 75.3575 176.714 75.3575C174.679 75.3575 169.213 75.1177 166.181 75.1979C165.862 75.0773 166.46 73.6367 166.739 73.3969C167.458 73.3566 168.016 73.3167 168.774 73.0764C169.852 72.7967 169.971 72.4762 170.13 70.8357C170.21 69.4349 170.21 64.4721 170.21 60.9507C170.21 56.1085 170.251 52.8269 170.21 51.2263C170.171 49.986 169.732 49.5853 168.854 49.345C168.175 49.2254 167.059 49.0649 166.141 48.9452C165.941 48.7449 166.619 47.384 166.859 47.2244ZM143.837 72.1163C144.796 72.8761 146.671 73.1961 148.346 73.1961C150.501 73.1961 152.655 72.7967 154.73 70.915C156.845 68.9948 158.321 66.0333 158.321 61.3111C158.321 56.7884 156.605 53.1066 153.094 50.9461C151.099 49.705 148.546 49.1855 145.593 49.1855C144.716 49.1855 143.878 49.2254 143.359 49.4652C143.239 49.5454 142.96 49.9053 142.96 50.1053C142.88 50.9058 142.88 57.0686 142.88 60.6706C142.88 64.3923 142.88 69.595 142.96 70.1952C142.96 70.7958 143.239 71.716 143.838 72.1163H143.837ZM134.781 47.224C135.539 47.224 138.451 47.3441 139.848 47.3441C142.362 47.3441 144.157 47.2244 148.905 47.2244C152.894 47.2244 156.246 48.3047 158.64 50.3455C161.552 52.8668 163.069 56.3487 163.069 60.5904C163.069 66.6335 160.316 70.1154 157.562 72.1163C154.81 74.1571 151.219 75.3575 146.112 75.3575C143.399 75.3575 138.731 75.2777 134.861 75.2374H134.821C134.621 74.8774 135.14 73.4767 135.459 73.4368C136.497 73.3167 136.776 73.2763 137.295 73.0768C138.132 72.7564 138.292 72.3162 138.412 70.8357C138.531 68.0741 138.491 64.7527 138.491 60.9906C138.491 58.3097 138.531 53.0667 138.451 51.3859C138.332 49.9856 137.733 49.6252 136.536 49.3849C135.938 49.2653 135.14 49.1048 134.023 48.9851C133.863 48.7045 134.581 47.4638 134.781 47.224Z" fill="#8E714E"/>
<path fill-rule="evenodd" clip-rule="evenodd" d="M99.1264 72.8662C98.3451 72.7711 97.7827 72.6449 97.0953 72.3281C97.0015 72.2646 96.845 71.9482 96.845 71.8213C96.7827 70.7129 96.7827 67.5462 96.7827 65.4248C96.7827 63.7145 96.5017 62.2262 95.7828 61.1813C94.9389 59.9775 93.7205 59.2812 92.1578 59.2812C90.7829 59.2812 88.9391 60.2311 87.4078 61.5612C87.3767 61.5928 87.1268 61.8148 87.1579 61.4661C87.1579 61.1178 87.2206 60.4212 87.2517 59.9459C87.2832 59.5026 87.033 59.2812 87.033 59.2812C86.033 59.7878 83.2207 60.4528 82.1893 60.5475C81.4396 60.7064 81.252 61.4346 82.0335 61.6878H82.0647C82.9078 61.9411 83.4706 62.2262 83.9078 62.5114C84.2204 62.7646 84.1892 63.113 84.1892 63.3981C84.2204 65.7728 84.2204 69.4147 84.1269 71.4098C84.0957 72.2015 83.877 72.4863 83.3142 72.6129L83.3768 72.5814C82.9393 72.6764 82.5956 72.7711 82.0643 72.8346C81.8767 73.0247 81.8767 74.0381 82.0643 74.2598C82.408 74.2598 84.2204 74.1647 85.7208 74.1647C87.783 74.1647 88.8457 74.2598 89.3766 74.2598C89.5954 74.0065 89.658 73.0563 89.5331 72.8346C88.9391 72.803 88.5016 72.7399 88.0956 72.6129C87.5331 72.486 87.3767 72.2015 87.3452 71.5365C87.2832 69.8577 87.2832 66.3112 87.2832 63.9046C87.2832 63.2396 87.4705 62.9228 87.6577 62.7327C88.3767 62.0996 89.5331 61.6562 90.5642 61.6562C91.5641 61.6562 92.2201 61.973 92.7202 62.3848C93.4076 62.9544 93.6264 63.778 93.7202 64.3795C93.8763 65.7412 93.814 68.4329 93.814 70.7764C93.814 72.043 93.7202 72.3597 93.2519 72.5179C93.0328 72.6129 92.4703 72.7399 91.8141 72.8027C91.5953 73.0247 91.6579 74.0065 91.8141 74.2282C92.7202 74.2282 93.7828 74.1331 95.3452 74.1331C97.2825 74.1331 98.5327 74.2282 99.0329 74.2282C99.1887 74.0381 99.2513 73.1198 99.1264 72.8662ZM107.782 60.7699C106.126 60.7699 105.095 62.068 105.095 64.0944C105.095 66.153 106.001 68.528 108.564 68.528C109.001 68.528 109.814 68.3379 110.188 67.8945C110.782 67.3249 111.189 66.1846 111.189 64.9811C111.189 62.3529 109.907 60.7699 107.782 60.7699ZM107.564 74.7663C106.939 74.7663 106.501 74.9564 106.22 75.1149C104.907 75.9694 104.314 76.7929 104.314 77.7751C104.314 78.693 104.657 79.4212 105.408 80.0547C106.314 80.8463 107.564 81.2265 109.157 81.2265C112.345 81.2265 113.751 79.4847 113.751 77.7751C113.751 76.5713 113.157 75.7796 111.939 75.3366C111.064 74.9564 109.47 74.7663 107.564 74.7663ZM107.782 83C105.876 83 104.501 82.5882 103.314 81.6699C102.157 80.7832 101.658 79.4531 101.658 78.5348C101.658 78.2816 101.72 77.5846 102.283 76.9515C102.626 76.5713 103.376 75.8431 105.158 74.6081C105.22 74.5765 105.251 74.5449 105.251 74.4811C105.251 74.418 105.188 74.3545 105.126 74.3232C103.658 73.7533 103.22 72.8346 103.095 72.3281V72.2646C103.064 72.0745 103.001 71.8848 103.283 71.6946C103.501 71.5365 103.814 71.3463 104.157 71.125C104.689 70.8079 105.251 70.4596 105.595 70.1745C105.657 70.1113 105.657 70.0482 105.657 69.9847C105.657 69.9212 105.595 69.8577 105.532 69.8265C103.345 69.098 102.252 67.4512 102.252 64.9811C102.252 63.3662 102.97 61.9095 104.251 60.9912C105.126 60.2946 107.314 59.4394 108.751 59.4394H108.845C110.314 59.471 111.126 59.7878 112.282 60.1995C112.907 60.4212 113.501 60.5159 114.314 60.5159C115.532 60.5159 116.063 60.1361 116.501 59.693C116.532 59.7562 116.595 59.9147 116.626 60.3262C116.657 60.738 116.532 61.3395 116.22 61.7829C115.97 62.1312 115.407 62.3848 114.845 62.3848H114.688C114.126 62.3213 113.876 62.2578 113.876 62.2578L113.751 62.3213C113.72 62.3848 113.751 62.4479 113.782 62.543L113.814 62.6065C113.876 62.8913 114.001 63.7461 114.001 63.9681C114.001 66.5648 112.97 67.7044 111.876 68.5596C110.813 69.3512 109.595 69.8577 108.22 69.9847C108.189 69.9847 108.064 69.9847 107.782 70.0163C107.626 70.0163 107.407 70.0482 107.376 70.0482H107.345C107.095 70.1113 106.47 70.4281 106.47 70.9661C106.47 71.4411 106.751 72.0114 108.095 72.1064C108.376 72.138 108.657 72.138 108.97 72.1699C110.751 72.2962 112.97 72.4547 114.001 72.803C115.438 73.3411 116.344 74.6396 116.344 76.1914C116.344 78.5352 114.689 80.72 111.939 82.0814C110.595 82.6833 109.251 83 107.782 83ZM125.594 60.9281C124.938 60.9281 124.344 61.0859 123.907 61.4027C122.688 62.1627 122.063 63.6829 122.063 65.8994C122.063 70.0482 124.125 72.9616 127.063 72.9616C127.938 72.9616 128.625 72.708 129.219 72.2015C130.125 71.4411 130.594 69.9212 130.594 67.7995C130.594 63.6829 128.563 60.9277 125.594 60.9277L125.594 60.9281ZM126.157 74.4814C120.844 74.4814 118.938 70.5231 118.938 66.818C118.938 64.2214 119.969 62.2262 122.032 60.8011C123.501 59.8828 125.251 59.3763 126.813 59.3763C130.875 59.3763 133.719 62.3213 133.719 66.5648C133.719 69.4463 132.594 71.7262 130.438 73.1198C129.407 73.8164 127.625 74.4814 126.157 74.4814H126.157ZM70.4711 60.9277C69.8148 60.9277 69.2212 61.0859 68.7834 61.4027C67.565 62.1627 66.9399 63.6829 66.9399 65.8994C66.9399 70.0482 69.0021 72.9616 71.9397 72.9616C72.8147 72.9616 73.5021 72.708 74.0961 72.2015C75.0019 71.4411 75.4709 69.9212 75.4709 67.7995C75.4709 63.6829 73.471 60.9277 70.4711 60.9277ZM71.0336 74.4814C65.7212 74.4814 63.8151 70.5231 63.8151 66.818C63.8151 64.2214 64.8462 62.2262 66.9084 60.8011C68.3774 59.8828 70.1274 59.3763 71.6898 59.3763C75.7523 59.3763 78.5958 62.3213 78.5958 66.5648C78.5958 69.4463 77.4709 71.7262 75.3145 73.1198C74.3145 73.8164 72.5333 74.4814 71.0336 74.4814ZM35.3159 74.1647C35.2533 74.07 35.1906 73.7848 35.2221 73.4365C35.2221 73.1829 35.2848 73.0247 35.3159 72.9616C35.9722 72.8662 36.3159 72.7711 36.6908 72.6764C37.3159 72.5179 37.5658 72.1699 37.5969 71.3783C37.6911 69.4782 37.6911 65.8678 37.6596 63.3662V63.3027C37.6596 63.0179 37.6596 62.6692 37.3159 62.416C36.8157 62.0996 36.2221 61.8148 35.4409 61.5924C35.1598 61.4981 34.9722 61.3395 35.0034 61.1497C35.0034 60.9596 35.191 60.738 35.5973 60.6745C36.6284 60.5794 39.3154 59.9147 40.3781 59.4394C40.4407 59.5026 40.5345 59.693 40.5345 59.9463L40.5033 60.2943C40.4719 60.6429 40.4407 61.0547 40.4407 61.4661C40.4407 61.5928 40.566 61.6878 40.6906 61.6878C40.7533 61.6878 40.8159 61.6562 40.8782 61.6243C42.8781 60.041 44.6905 59.471 45.6278 59.471C47.1594 59.471 48.3469 60.1995 49.2531 61.7194C49.3154 61.8148 49.3781 61.8464 49.4719 61.8464C49.5342 61.8464 49.6276 61.8148 49.6591 61.7513C51.5029 60.3262 53.3468 59.471 54.5651 59.471C57.4712 59.471 59.1901 61.6562 59.1901 65.3613C59.1901 66.4062 59.1901 67.7679 59.159 69.0033C59.159 70.1113 59.1278 71.1247 59.1278 71.8532C59.1278 72.011 59.3462 72.5179 59.6899 72.6129C60.1274 72.8346 60.7214 72.9297 61.5026 73.0563H61.5337C61.5964 73.278 61.4714 74.1012 61.3465 74.2598C61.1589 74.2598 60.8775 74.2598 60.5653 74.2282C59.7742 74.1864 58.9823 74.1652 58.1901 74.1647C56.2529 74.1647 55.2529 74.1963 54.2837 74.2598C54.2218 74.0065 54.1903 73.2464 54.2837 73.0563C54.8465 72.9616 55.1276 72.8662 55.4716 72.7715C56.0968 72.5814 56.2529 72.2962 56.2844 71.473C56.2844 70.8714 56.409 65.7412 56.2214 64.5062C56.0341 63.2396 55.0965 61.7513 53.0339 61.7513C52.2527 61.7513 51.0343 62.068 49.8467 62.986C49.7844 63.0495 49.7214 63.2077 49.7214 63.3027V63.3346C49.8467 63.9993 49.8467 64.7598 49.8467 65.9313V67.9896C49.8467 69.4147 49.8152 70.7448 49.8467 71.7578C49.8467 72.4547 50.2531 72.6129 50.5968 72.7399C50.7844 72.7711 50.909 72.803 51.0654 72.8346C51.3465 72.8981 51.6279 72.9616 52.0654 73.0563C52.1281 73.1833 52.128 73.5947 52.0343 73.943C52.0028 74.1331 51.9401 74.2278 51.909 74.2598C50.8467 74.2282 49.7529 74.1963 48.1594 74.1963C47.6907 74.1963 46.878 74.2282 46.1906 74.2282C45.6278 74.2282 45.0968 74.2598 44.7846 74.2598C44.7531 74.1963 44.6905 73.9749 44.6905 73.6263C44.6905 73.3415 44.7531 73.1198 44.8158 73.0563C44.9719 73.0247 45.0968 72.9932 45.2533 72.9932C45.6278 72.9297 45.9407 72.8662 46.2529 72.803C46.7845 72.6449 46.9718 72.3597 47.0029 71.6631C47.0967 70.0797 47.1905 65.5514 46.9718 64.4111C46.5969 62.5745 45.5658 61.6562 43.9093 61.6562C42.9408 61.6562 41.7217 62.1312 40.7221 62.8916C40.5657 63.0179 40.4407 63.3343 40.4407 63.6195V65.488C40.4407 67.7679 40.4407 70.6182 40.4719 71.8532C40.5033 72.2327 40.628 72.6764 41.3469 72.8346C41.5033 72.8662 41.7532 72.9297 42.0658 72.9616L42.6279 73.0563C42.6909 73.2464 42.6594 74.0065 42.5344 74.2598C42.2219 74.2598 41.847 74.2282 41.4092 74.2282C40.7533 74.1963 39.9094 74.1647 38.9721 74.1647C37.8783 74.1647 37.0971 74.1963 36.472 74.2282C36.0345 74.1647 35.6908 74.1647 35.3159 74.1647Z" fill="#442D22"/>
<path fill-rule="evenodd" clip-rule="evenodd" d="M19.0807 80.3814L17.0312 79.6536C17.0312 79.6536 17.2815 68.7979 13.5315 68.0189C11.0323 65.0058 13.9324 -59.7611 22.931 67.603C22.931 67.603 19.831 69.2128 19.2812 71.9664C18.6809 74.6676 19.0807 80.3814 19.0807 80.3814Z" fill="#DFE0E2"/>
<path fill-rule="evenodd" clip-rule="evenodd" d="M19.0807 80.3814L17.0312 79.6536C17.0312 79.6536 17.2815 68.7979 13.5315 68.0189C11.0323 65.0058 13.9324 -59.7611 22.931 67.603C22.931 67.603 19.831 69.2128 19.2812 71.9664C18.6809 74.6676 19.0807 80.3814 19.0807 80.3814Z" fill="#A6A385"/>
<path fill-rule="evenodd" clip-rule="evenodd" d="M20.6435 69.9497C20.6435 69.9497 38.5562 57.6829 34.3644 32.1621C30.3233 13.6074 20.7933 7.52613 19.7454 5.18701C18.5981 3.52377 17.5 0.613525 17.5 0.613525L18.2488 52.2252C18.2488 52.2776 16.702 68.0262 20.6441 69.9502" fill="#DFE0E2"/>
<path fill-rule="evenodd" clip-rule="evenodd" d="M20.6435 69.9497C20.6435 69.9497 38.5562 57.6829 34.3644 32.1621C30.3233 13.6074 20.7933 7.52613 19.7454 5.18701C18.5981 3.52377 17.5 0.613525 17.5 0.613525L18.2488 52.2252C18.2488 52.2776 16.702 68.0262 20.6441 69.9502" fill="#499D4A"/>
<path fill-rule="evenodd" clip-rule="evenodd" d="M16.5757 69.9503C16.5757 69.9503 -0.998485 58.0415 0.0446669 37.0725C1.03527 16.1028 13.4463 5.79927 15.8451 3.93538C17.4098 2.27852 17.4618 1.65685 17.5663 0C18.6615 2.33014 18.453 34.8461 18.6089 38.6771C19.078 53.4334 17.7749 67.155 16.5757 69.9503Z" fill="#DFE0E2"/>
<path fill-rule="evenodd" clip-rule="evenodd" d="M16.5757 69.9503C16.5757 69.9503 -0.998485 58.0415 0.0446669 37.0725C1.03527 16.1028 13.4463 5.79927 15.8451 3.93538C17.4098 2.27852 17.4618 1.65685 17.5663 0C18.6615 2.33014 18.453 34.8461 18.6089 38.6771C19.078 53.4334 17.7749 67.155 16.5757 69.9503Z" fill="#58AA50"/>
</svg>
