<svg width="153" height="104" viewBox="0 0 153 104" fill="none" xmlns="http://www.w3.org/2000/svg">
<path d="M37.0964 94.7442H31.2313C31.0239 84.7705 30.4527 75.3939 29.5189 66.6076H29.4667L20.5371 94.7442H16.0718L7.19548 66.6076H7.14448C6.48601 75.0433 6.07121 84.4222 5.89894 94.7442H0.552979C0.897514 82.1923 1.76338 70.4247 3.14719 59.4404H10.4164L18.8768 85.3813H18.9289L27.4415 59.4404H34.3968C35.92 72.3064 36.8198 84.0751 37.0964 94.7442ZM62.5319 68.6971C60.144 81.7527 56.9933 91.2389 53.0832 97.1603C50.0368 101.718 46.6991 104 43.0645 104C42.0955 104 40.8999 103.705 39.4832 103.121V99.9726C40.1756 100.073 40.9883 100.13 41.9221 100.13C43.6199 100.13 44.9844 99.6597 46.0248 98.7166C47.2692 97.5679 47.8914 96.2766 47.8914 94.8481C47.8914 93.8685 47.4064 91.8657 46.4385 88.8331L40.0022 68.696H45.7641L50.3836 83.7565C51.4218 87.1763 51.8547 89.5638 51.6813 90.9237C54.2075 84.1265 55.9721 76.715 56.9774 68.6948H62.5319V68.6971Z" fill="#5D87A1"/>
<path d="M140.602 94.7446H123.942V59.4408H129.546V90.3988H140.602V94.7446ZM119.581 95.5975L113.139 92.3947C113.71 91.922 114.256 91.4105 114.748 90.8179C117.486 87.5774 118.852 82.7852 118.852 76.4378C118.852 64.7582 114.303 58.9155 105.201 58.9155C100.738 58.9155 97.2561 60.3976 94.7662 63.3629C92.0303 66.6057 90.6646 71.3807 90.6646 77.6938C90.6646 83.8996 91.875 88.452 94.297 91.3397C96.5127 93.9556 99.8526 95.2652 104.319 95.2652C105.985 95.2652 107.514 95.0597 108.907 94.6452L117.294 99.5642L119.581 95.5975ZM98.7125 87.6802C97.2935 85.3805 96.5841 81.6879 96.5841 76.5965C96.5841 67.7075 99.2644 63.2579 104.631 63.2579C107.436 63.2579 109.492 64.322 110.806 66.4458C112.223 68.7488 112.936 72.4084 112.936 77.4289C112.936 86.391 110.253 90.8727 104.89 90.8727C102.084 90.8738 100.028 89.8131 98.7125 87.6802ZM88.2223 84.9592C88.2223 87.953 87.132 90.4091 84.9537 92.3331C82.7732 94.249 79.8492 95.2093 76.1851 95.2093C72.7579 95.2093 69.4349 94.1063 66.2185 91.9117L67.7247 88.8802C70.4923 90.2766 72.9981 90.9709 75.2478 90.9709C77.3592 90.9709 79.0094 90.4993 80.2062 89.5641C81.4018 88.6256 82.1147 87.3091 82.1147 85.6443C82.1147 83.5468 80.6629 81.7541 77.9996 80.2526C75.5436 78.8939 70.6317 76.053 70.6317 76.053C67.9695 74.0982 66.6367 71.9996 66.6367 68.5422C66.6367 65.6808 67.6306 63.3709 69.6197 61.6136C71.6109 59.8495 74.1802 58.9703 77.3298 58.9703C80.5824 58.9703 83.5393 59.8484 86.2027 61.5862L84.8517 64.6189C82.5737 63.6438 80.3252 63.1562 78.1072 63.1562C76.3109 63.1562 74.9237 63.5913 73.9592 64.4648C72.9868 65.3348 72.3873 66.4481 72.3873 67.8137C72.3873 69.9009 73.8697 71.7164 76.6056 73.2476C79.0944 74.6086 84.1287 77.4986 84.1287 77.4986C86.8589 79.4499 88.2223 81.5292 88.2223 84.9592Z" fill="#F8981D"/>
<path d="M147.638 47.616C144.249 47.5293 141.625 47.873 139.423 48.8115C138.787 49.0673 137.777 49.0673 137.688 49.8768C138.032 50.2194 138.071 50.772 138.369 51.2447C138.877 52.0977 139.762 53.2452 140.57 53.8435C141.458 54.5286 142.348 55.2068 143.282 55.804C144.929 56.8305 146.796 57.4277 148.4 58.4507C149.335 59.0456 150.265 59.8152 151.201 60.4558C151.661 60.7972 151.956 61.351 152.553 61.5645V61.4343C152.254 61.0507 152.169 60.4957 151.875 60.0687L150.604 58.8332C149.375 57.1708 147.848 55.7195 146.202 54.5275C144.846 53.5866 141.881 52.3078 141.332 50.7343L141.246 50.6476C142.177 50.5596 143.282 50.2194 144.167 49.9579C145.608 49.5754 146.921 49.6622 148.399 49.2797C149.079 49.1084 149.754 48.8937 150.436 48.6825V48.2977C149.67 47.5293 149.123 46.5085 148.318 45.7823C146.162 43.9063 143.787 42.0714 141.332 40.5356C140.017 39.6804 138.326 39.1301 136.927 38.4027C136.422 38.1458 135.572 38.0191 135.275 37.592C134.516 36.6535 134.089 35.418 133.538 34.307C132.314 31.9629 131.125 29.3618 130.069 26.8829C129.305 25.2205 128.84 23.5603 127.909 22.0222C123.545 14.7717 118.807 10.3803 111.524 6.06992C109.959 5.17246 108.097 4.78995 106.108 4.31952L102.931 4.15053C102.253 3.85138 101.574 3.03954 100.983 2.65589C98.5664 1.12129 92.3455 -2.20482 90.5684 2.18661C89.4237 4.96236 92.2616 7.6913 93.2363 9.09916C93.956 10.0766 94.8887 11.1887 95.3919 12.2985C95.69 13.0236 95.7738 13.7932 96.0719 14.5593C96.7496 16.4365 97.3832 18.5249 98.274 20.2764C98.7386 21.1693 99.2452 22.1079 99.8391 22.9163C100.179 23.389 100.771 23.5979 100.9 24.3687C100.309 25.2182 100.263 26.5004 99.9241 27.5669C98.4009 32.3865 98.9959 38.3571 101.155 41.899C101.83 42.9654 103.442 45.313 105.598 44.4132C107.506 43.6459 107.083 41.215 107.632 39.0833C107.758 38.5683 107.675 38.2303 107.929 37.8923V37.9757C108.519 39.1689 109.115 40.3187 109.663 41.5153C110.976 43.6037 113.264 45.78 115.169 47.2267C116.183 47.9986 116.987 49.3185 118.257 49.7901V49.6622H118.173C117.916 49.2797 117.54 49.1084 117.202 48.8115C116.438 48.0431 115.593 47.1045 115 46.2527C113.225 43.8629 111.654 41.2173 110.26 38.4872C109.578 37.1627 108.99 35.7149 108.44 34.3927C108.184 33.8823 108.184 33.1127 107.759 32.8558C107.122 33.7932 106.194 34.605 105.729 35.7537C104.923 37.5909 104.839 39.8506 104.54 42.2004L104.374 42.2826C103.025 41.9412 102.556 40.5356 102.043 39.3424C100.775 36.3121 100.562 31.4479 101.663 27.9517C101.957 27.0576 103.232 24.2419 102.723 23.3901C102.468 22.5737 101.621 22.109 101.156 21.4662C100.61 20.6578 100.011 19.6347 99.6306 18.7372C98.6151 16.3497 98.104 13.7041 97.0103 11.3177C96.4992 10.2056 95.6118 9.05463 94.8932 8.03042C94.0863 6.87947 93.1989 6.06878 92.5608 4.70431C92.35 4.23503 92.0542 3.46772 92.3931 2.95733C92.4758 2.61479 92.6481 2.48691 92.9858 2.40127C93.5343 1.93427 95.1018 2.52801 95.6514 2.78492C97.2211 3.42433 98.5335 4.0215 99.8436 4.91669C100.436 5.34487 101.072 6.15556 101.833 6.36908H102.723C104.076 6.66595 105.6 6.45129 106.873 6.83723C109.115 7.56342 111.148 8.62873 112.97 9.77854C118.515 13.3216 123.088 18.3559 126.176 24.3687C126.682 25.3483 126.898 26.2458 127.36 27.2677C128.252 29.3595 129.355 31.4925 130.24 33.5397C131.129 35.5436 131.977 37.5898 133.248 39.2545C133.881 40.1497 136.427 40.619 137.568 41.0883C138.412 41.4708 139.727 41.8111 140.489 42.2803C141.929 43.1744 143.364 44.2009 144.718 45.184C145.393 45.6955 147.512 46.762 147.638 47.616ZM104.451 10.5481C103.866 10.542 103.283 10.6142 102.718 10.7628V10.8484H102.799C103.141 11.5301 103.733 12.0028 104.156 12.5977C104.497 13.2816 104.793 13.9599 105.127 14.6427L105.209 14.5582C105.806 14.1323 106.103 13.4495 106.103 12.4253C105.846 12.1238 105.806 11.8292 105.592 11.5301C105.343 11.103 104.793 10.8907 104.451 10.5481Z" fill="#5D87A1"/>
<path d="M151.67 94.7388H152.547V90.4136H151.232L150.158 93.3652L148.992 90.4136H147.725V94.7388H148.554V91.4481H148.6L149.822 94.7388H150.453L151.67 91.4481V94.7388ZM144.604 94.7388H145.532V91.1467H146.747V90.4125H143.338V91.1467H144.602L144.604 94.7388Z" fill="#F8981D"/>
</svg>
