<svg width="174" height="110" viewBox="0 0 174 110" fill="none" xmlns="http://www.w3.org/2000/svg">
<path d="M119.559 0C118.678 0 117.871 0.703127 117.871 1.68139V32.405L110.877 28.3434C110.439 28.0863 109.946 27.9613 109.452 27.9613C108.958 27.9613 108.464 28.0863 108.026 28.3434L91.2206 38.1042C90.345 38.6073 89.8064 39.5383 89.8064 40.539V60.0824C89.8064 61.0886 90.345 62.014 91.2206 62.5171L108.026 72.2779C108.464 72.5351 108.958 72.66 109.452 72.66C109.946 72.66 110.439 72.5351 110.877 72.2779L127.683 62.5171C128.558 62.014 129.097 61.083 129.097 60.0824V50.3107V40.539V6.87841C129.097 5.88338 128.563 4.96862 127.705 4.46551L120.392 0.22928C120.117 0.0727583 119.84 0 119.559 0ZM64.5484 27.9613C64.0559 27.9613 63.5638 28.0891 63.1232 28.3434L46.3174 38.1042C45.4418 38.6073 44.9032 39.5383 44.9032 40.539V60.0824C44.9032 61.0886 45.4418 62.014 46.3174 62.5171L63.1232 72.2779C64.0045 72.7866 65.0923 72.7866 65.9735 72.2779L82.7794 62.5171C83.655 62.014 84.1936 61.083 84.1936 60.0824V40.539C84.1936 39.5327 83.655 38.6073 82.7794 38.1042L65.9735 28.3434C65.5329 28.0891 65.0409 27.9613 64.5484 27.9613ZM154.355 27.9613C153.861 27.9613 153.367 28.0863 152.93 28.3434L136.124 38.1042C135.248 38.6073 134.71 39.5383 134.71 40.539V60.0824C134.71 61.0886 135.248 62.014 136.124 62.5171L152.425 72.3325C153.301 72.8636 154.4 72.8686 155.287 72.3543L163.3 67.7141C164.131 67.239 164.137 66.0387 163.3 65.5524L145.935 55.3658V45.332L154.355 40.4516L162.774 45.332V52.3196C162.774 53.2531 163.562 53.3969 164.09 53.0839C166.211 51.8429 172.608 48.1489 172.608 48.1489C173.467 47.6514 174 46.731 174 45.736V40.539C174 39.5327 173.461 38.6073 172.586 38.1042L155.78 28.3434C155.337 28.0863 154.849 27.9613 154.355 27.9613ZM19.6452 27.9722C19.1512 27.9722 18.6578 28.0972 18.22 28.3543L1.41419 38.1042C0.538576 38.6129 0 39.5437 0 40.5499V65.4978C0 66.7164 1.32368 67.4718 2.37891 66.8625L9.83354 62.539C10.6923 62.0359 11.2258 61.1211 11.2258 60.1261V45.3538L19.6452 40.4625L28.0645 45.3538V60.1261C28.0645 61.1211 28.598 62.0359 29.4568 62.539L36.9114 66.8625C37.9666 67.4774 39.2903 66.7164 39.2903 65.4978V40.5499C39.2903 39.5437 38.7517 38.6129 37.8761 38.1042L21.0703 28.3543C20.6325 28.0972 20.1391 27.9722 19.6452 27.9722ZM109.452 40.4516L117.871 45.3429V50.3107V55.2784L109.452 60.1697L101.032 55.2784V45.3429L109.452 40.4516ZM154.355 44.7424L149.542 47.5375V53.1166L154.355 55.9007L159.167 53.1166V47.5375L154.355 44.7424ZM86.4738 67.07C85.8964 67.07 85.3126 67.2107 84.8075 67.4958L69.0212 76.5797C67.9828 77.1498 67.3548 78.2719 67.3548 79.4402V97.5861C67.3548 98.7544 68.0108 99.8541 69.0212 100.447L73.176 102.805C75.1686 103.783 75.901 103.788 76.8047 103.788C79.7795 103.788 81.4748 102.016 81.4748 98.8854V80.9578C81.4748 80.6839 81.2613 80.4883 81.0144 80.4883H79.0191C78.7441 80.4883 78.5478 80.7119 78.5478 80.9578V98.8854C78.5478 100.244 77.1065 101.637 74.7547 100.468L70.4354 97.9901C70.295 97.9062 70.1942 97.7373 70.1942 97.5752V79.4293C70.1942 79.2672 70.2726 79.0764 70.4354 78.9926L86.2216 69.9305C86.39 69.8467 86.5803 69.8467 86.715 69.9305L102.512 78.9926C102.675 79.0764 102.753 79.2392 102.753 79.4293V97.5752C102.753 97.7653 102.647 97.9281 102.512 98.0119L86.715 107.107C86.5746 107.191 86.3564 107.191 86.2216 107.107L82.1874 104.716C82.0807 104.66 81.9103 104.627 81.8037 104.683C80.6867 105.337 80.4632 105.423 79.4248 105.775C79.1497 105.859 78.7759 106.027 79.5673 106.463L84.8075 109.563C85.3295 109.837 85.9013 110 86.4738 110C87.0744 110 87.6579 109.838 88.1182 109.541L103.904 100.447C104.943 99.8765 105.571 98.7544 105.571 97.5861V79.4402C105.571 78.2719 104.915 77.1778 103.904 76.5797L88.1182 67.4958C87.6271 67.2107 87.0512 67.07 86.4738 67.07ZM111.096 75.4442C109.485 75.4442 108.07 76.7414 108.07 78.4576C108.07 80.1178 109.429 81.4819 111.096 81.4819C112.763 81.4819 114.122 80.1178 114.122 78.4576C114.122 76.7414 112.735 75.4162 111.096 75.4442ZM111.063 75.9246C112.489 75.9246 113.639 77.0433 113.639 78.4576C113.639 79.8439 112.483 80.9898 111.063 81.0233C109.666 81.0233 108.531 79.8719 108.531 78.4576C108.531 77.0433 109.671 75.9246 111.063 75.9246ZM109.956 76.7434V80.139H110.603V78.7851H111.206C111.453 78.7851 111.511 78.8898 111.567 79.0799C111.567 79.1078 111.671 79.9878 111.699 80.1499H112.401C112.322 79.9878 112.264 79.5232 112.236 79.2437C112.158 78.8076 112.132 78.5074 111.666 78.4794C111.913 78.3956 112.324 78.2648 112.324 77.6387C112.324 76.7387 111.539 76.7434 111.129 76.7434H109.956ZM110.603 77.2893H111.151C111.319 77.2893 111.644 77.2839 111.644 77.7479C111.644 77.938 111.561 78.2448 111.118 78.2392H110.603V77.2893ZM90.7054 80.0625C86.1982 80.0625 83.5248 81.9757 83.5248 85.1285C83.5248 88.5832 86.2027 89.5074 90.519 89.9434C95.6829 90.4577 96.0881 91.1973 96.0881 92.2035C96.0881 93.9699 94.6643 94.7037 91.3303 94.7037C87.1487 94.7037 86.2288 93.6713 85.9257 91.603C85.8976 91.385 85.7012 91.2208 85.4543 91.2208H83.4042C83.1573 91.2208 82.9438 91.4164 82.9438 91.6903C82.9438 94.3288 84.3879 97.4878 91.2974 97.4878C96.3658 97.4823 99.2344 95.5266 99.2344 92.0943C99.2344 88.6955 96.9365 87.7915 92.0757 87.1375C87.1588 86.4834 86.6711 86.1544 86.6711 85.0084C86.6711 84.0581 87.0738 82.8139 90.7054 82.8139C93.9553 82.8139 95.1666 83.5217 95.6605 85.6963C95.7167 85.9143 95.8692 86.0457 96.0881 86.0457H98.1381C98.2728 86.0457 98.3884 85.9929 98.467 85.9146C98.5512 85.8084 98.6047 85.6994 98.5766 85.5653C98.2511 81.8087 95.7626 80.0625 90.7054 80.0625Z" fill="#3C873A"/>
</svg>
