<svg width="120" height="110" viewBox="0 0 120 110" fill="none" xmlns="http://www.w3.org/2000/svg">
<path d="M40.3041 0.0487747C36.6814 -0.194908 33.1209 0.462575 30 2.2903C25.8388 4.72726 23.0677 8.88698 21.5792 13.6762C20.0908 18.4655 19.7468 23.9848 20.2902 30.0122C20.3452 30.6227 20.4511 31.2591 20.5246 31.8801C19.9565 32.1265 19.3584 32.3529 18.8086 32.6103C13.3909 35.1467 8.85254 38.2054 5.50781 41.9075C2.16308 45.6097 0 50.1261 0 55.0001C0 59.874 2.16308 64.3905 5.50781 68.0926C8.85254 71.7947 13.3909 74.8535 18.8086 77.3898C19.3584 77.6472 19.9565 77.8736 20.5246 78.12C20.4511 78.7411 20.3452 79.3774 20.2902 79.988C19.7468 86.0153 20.0908 91.5347 21.5792 96.3239C23.0677 101.113 25.8388 105.273 30 107.71C34.1612 110.147 39.0954 110.504 43.9286 109.416C48.7617 108.329 53.6441 105.869 58.5184 102.378C59.0119 102.024 59.5067 101.615 60 101.24C60.4933 101.615 60.9881 102.024 61.4816 102.378C66.3559 105.869 71.2383 108.329 76.0714 109.416C80.9046 110.504 85.8388 110.147 90 107.71C94.1612 105.273 96.9323 101.113 98.4208 96.3239C99.9092 91.5347 100.253 86.0153 99.7098 79.988C99.6548 79.3774 99.5489 78.7411 99.4754 78.12C100.043 77.8736 100.642 77.6472 101.191 77.3898C106.609 74.8535 111.147 71.7947 114.492 68.0926C117.837 64.3905 120 59.874 120 55.0001C120 50.1261 117.837 45.6097 114.492 41.9075C111.147 38.2054 106.609 35.1467 101.191 32.6103C100.642 32.3529 100.043 32.1265 99.4754 31.8801C99.5489 31.2591 99.6548 30.6227 99.7098 30.0122C100.253 23.9848 99.9092 18.4655 98.4208 13.6762C96.9323 8.88698 94.1612 4.72726 90 2.2903C85.8388 -0.146666 80.9046 -0.503428 76.0714 0.583684C71.2383 1.6708 66.3559 4.13141 61.4816 7.62241C60.9881 7.97584 60.4933 8.3853 60 8.76015C59.5067 8.3853 59.0119 7.97584 58.5184 7.62241C53.6441 4.13141 48.7617 1.6708 43.9286 0.583684C42.7203 0.311905 41.5117 0.130002 40.3041 0.0487747ZM39.7433 8.70921C40.4736 8.76498 41.25 8.88791 42.0787 9.0743C45.3173 9.80276 49.1959 11.6466 53.2868 14.5338C49.8796 17.8123 46.5266 21.5421 43.3259 25.7159C38.1679 26.4406 33.3095 27.5135 28.8114 28.8659C28.3925 23.8308 28.7518 19.4995 29.7489 16.2913C30.7697 13.0068 32.2975 10.9858 34.2857 9.82148C35.7769 8.9482 37.5523 8.54188 39.7433 8.70921ZM80.2567 8.70921C82.4477 8.54188 84.2231 8.9482 85.7143 9.82148C87.7025 10.9858 89.2303 13.0068 90.2511 16.2913C91.2482 19.4995 91.6075 23.8308 91.1886 28.8659C86.6905 27.5135 81.8321 26.4406 76.6741 25.7159C73.4734 21.5421 70.1204 17.8123 66.7132 14.5338C70.8041 11.6466 74.6827 9.80276 77.9213 9.0743C78.75 8.88791 79.5264 8.76498 80.2567 8.70921ZM60 20.0442C61.5064 21.4569 63.0101 23.0279 64.5117 24.6716C63.0172 24.618 61.5235 24.5697 60 24.5697C58.4765 24.5697 56.9828 24.618 55.4883 24.6716C56.9899 23.0279 58.4936 21.4569 60 20.0442ZM60 33.2641C64.1337 33.2641 68.1402 33.5107 71.995 33.9263C74.2773 37.1047 76.4906 40.5008 78.5575 44.1321C80.6245 47.7636 82.4174 51.4058 83.99 55.0001C82.4174 58.5944 80.6245 62.2365 78.5575 65.8681C76.4906 69.4993 74.2773 72.8954 71.995 76.0738C68.1402 76.4895 64.1337 76.736 60 76.736C55.8663 76.736 51.8598 76.4895 48.005 76.0738C45.7227 72.8954 43.5094 69.4993 41.4425 65.8681C39.3755 62.2365 37.5826 58.5944 36.01 55.0001C37.5826 51.4058 39.3755 47.7636 41.4425 44.1321C43.5094 40.5008 45.7227 37.1047 48.005 33.9263C51.8598 33.5107 55.8663 33.2641 60 33.2641ZM36.3616 35.8707C35.5686 37.1567 34.7796 38.4466 34.0179 39.7849C33.2561 41.1232 32.5513 42.4613 31.8499 43.8009C31.1984 41.6632 30.6116 39.5532 30.159 37.5264C32.1177 36.9096 34.2083 36.3678 36.3616 35.8707ZM83.6384 35.8707C85.7917 36.3678 87.8823 36.9096 89.841 37.5264C89.3884 39.5532 88.8016 41.6632 88.1501 43.8009C87.4487 42.4613 86.7439 41.1232 85.9821 39.7849C85.2204 38.4466 84.4314 37.1567 83.6384 35.8707ZM22.0898 40.6679C23.1851 45.2993 24.6976 50.1025 26.6602 55.0001C24.6976 59.8976 23.1851 64.7008 22.0898 69.3322C17.5835 67.1831 14.0674 64.6963 11.8276 62.2171C9.53371 59.6781 8.57143 57.3288 8.57143 55.0001C8.57143 52.6713 9.53371 50.322 11.8276 47.783C14.0674 45.3038 17.5835 42.8171 22.0898 40.6679ZM97.9102 40.6679C102.417 42.8171 105.933 45.3038 108.172 47.783C110.466 50.322 111.429 52.6713 111.429 55.0001C111.429 57.3288 110.466 59.6781 108.172 62.2171C105.933 64.6963 102.417 67.1831 97.9102 69.3322C96.8149 64.7008 95.3024 59.8976 93.3398 55.0001C95.3024 50.1025 96.8149 45.2993 97.9102 40.6679ZM60 41.9585C52.95 41.9585 47.1429 47.8489 47.1429 55.0001C47.1429 62.1512 52.95 68.0417 60 68.0417C67.05 68.0417 72.8571 62.1512 72.8571 55.0001C72.8571 47.8489 67.05 41.9585 60 41.9585ZM60 50.6529C62.4177 50.6529 64.2857 52.5477 64.2857 55.0001C64.2857 57.4524 62.4177 59.3473 60 59.3473C57.5823 59.3473 55.7143 57.4524 55.7143 55.0001C55.7143 52.5477 57.5823 50.6529 60 50.6529ZM31.8499 66.1992C32.5513 67.5388 33.2561 68.877 34.0179 70.2152C34.7796 71.5535 35.5686 72.8434 36.3616 74.1294C34.2083 73.6323 32.1177 73.0905 30.159 72.4738C30.6116 70.4469 31.1984 68.337 31.8499 66.1992ZM88.1501 66.1992C88.8016 68.337 89.3884 70.4469 89.841 72.4738C87.8823 73.0905 85.7917 73.6323 83.6384 74.1294C84.4314 72.8434 85.2204 71.5535 85.9821 70.2152C86.7439 68.877 87.4487 67.5388 88.1501 66.1992ZM28.8114 81.1342C33.3095 82.4866 38.1679 83.5596 43.3259 84.2842C46.5266 88.458 49.8796 92.1878 53.2868 95.4663C49.1959 98.3535 45.3173 100.197 42.0787 100.926C38.764 101.671 36.2739 101.343 34.2857 100.179C32.2975 99.0143 30.7697 96.9933 29.7489 93.7088C28.7518 90.5006 28.3925 86.1694 28.8114 81.1342ZM91.1886 81.1342C91.6075 86.1694 91.2482 90.5006 90.2511 93.7088C89.2303 96.9933 87.7025 99.0143 85.7143 100.179C83.7261 101.343 81.236 101.671 77.9213 100.926C74.6827 100.197 70.8041 98.3535 66.7132 95.4663C70.1204 92.1878 73.4734 88.458 76.6741 84.2842C81.8321 83.5596 86.6905 82.4866 91.1886 81.1342ZM55.4883 85.3286C56.9828 85.3822 58.4765 85.4304 60 85.4304C61.5235 85.4304 63.0172 85.3822 64.5117 85.3286C63.0101 86.9722 61.5064 88.5432 60 89.9559C58.4936 88.5432 56.9899 86.9722 55.4883 85.3286Z" fill="#61DBFB"/>
</svg>
